<?xml version="1.0" encoding="utf-8"?>
<!-- Generator: Adobe Illustrator 28.2.0, SVG Export Plug-In . SVG Version: 6.00 Build 0)  -->
<svg version="1.1" xmlns="http://www.w3.org/2000/svg" xmlns:xlink="http://www.w3.org/1999/xlink" x="0px" y="0px"
	 viewBox="0 0 850.39 850.39" style="enable-background:new 0 0 850.39 850.39;" xml:space="preserve">
<style type="text/css">
	.st0{fill-rule:evenodd;clip-rule:evenodd;}
	.st1{fill-rule:evenodd;clip-rule:evenodd;fill:#DEB426;}
</style>
<g id="New_Layer">
	<g>
		<path class="st0" d="M121.52-516.23c-3.6,0.7-10.3,3.2-15,5.5c-24.2,12-32.1,35.4-17.5,51.7l4.5,5v50.7c0,33.6-0.4,52.1-1.1,55
			c-1.5,6.1-6.9,12-12.8,14.2c-4.9,1.8-4.8,1.8,27.5,1.8c32.2,0,32.4,0,28.2-1.8c-5.3-2.3-8.4-5-11.1-10.2c-2.2-3.9-2.2-5-2.5-55.6
			l-0.3-51.6l11.8-0.7c9.7-0.5,29.7-3.6,30.8-4.8c0.2-0.2-6.5-0.3-14.8-0.3c-20.4,0-27.2-2-35.7-10.3c-6.3-6.1-8-10.1-8-18.3
			c0-5.8,2-11.6,6-17.4c3.8-5.6,8.4-9,15.7-12.1C133.92-518.13,131.72-518.43,121.52-516.23z"/>
		<path class="st0" d="M152.32-515.83c7.5,3.1,16.2,11.5,22.3,21.9c2.8,4.7,6.7,11.3,8.7,14.6c12.2,20.7,29.3,32.8,52.8,37.5
			c3.3,0.6,6.8,1.4,7.9,1.6c1.1,0.3-0.8-1.1-4.3-3c-13.4-7.3-19.2-13.8-32.3-35.9c-12.8-21.6-22.5-30.2-40.2-35.6
			c-3.7-1.1-9.8-2.3-13.5-2.6l-6.7-0.6L152.32-515.83z"/>
		<path class="st0" d="M353.92-501.43c-6.1,1.3-16.9,4-24,6.1c-18.6,5.4-93.9,31.3-93.2,32.1c0.2,0.1,3.5-0.6,7.3-1.7
			c21.3-6,69.8-15.5,97-19c18.6-2.5,40.8-2.2,51,0.5c17.1,4.6,30.8,16.1,36,30.3l1.4,3.8v-5c0.1-7-2.4-18-5.6-24.5
			c-5.4-11.1-18.8-21.1-32.1-23.9C382.92-504.53,366.32-503.93,353.92-501.43z"/>
		<path class="st0" d="M-48.48-477.83c5.1,5.3,8.2,11.1,27.8,52.5c31.5,66.5,44.2,93,44.7,92.7c0.3-0.1,3.2-0.2,6.5-0.2
			c5.7,0,6.1-0.2,7.1-2.8c0.6-1.5,3.3-6.6,6-11.3l4.9-8.6l-30.8-63.4l-30.8-63.4l-20.1-0.3l-20.2-0.2L-48.48-477.83z"/>
		<path class="st0" d="M240.02-436.83c-23,2.6-39.1,17.4-43,39.6c-1.8,9.9-1.8,15.8-0.1,25.6c3.6,20,15.6,32.6,36.2,37.8
			c4.2,1.1,9.1,2,10.8,2c3.1,0,3.1,0-1.1-2.1c-12-5.9-18.3-23.6-18.3-50.8c0-20.6,4.9-38.9,12.3-45.9c1.8-1.6,5-3.9,7.2-5
			c2.2-1.2,3.6-2.1,3-2C246.52-437.63,243.32-437.23,240.02-436.83z"/>
		<path class="st0" d="M265.22-435.33c5.7,2.9,9.2,6.9,12.8,14.8c5.1,11,7.3,30.4,5.6,47.7c-2.2,22-7.5,33.4-18,39
			c-3.3,1.8-3.4,1.9-1.1,1.9c4.9,0.1,16.1-2.9,22.5-5.9c15.8-7.5,23.9-21.7,25.1-43.5c1.2-21.3-5.9-38-20.2-47.1
			c-6.3-4.1-17.7-7.9-25.9-8.8l-6-0.7L265.22-435.33z"/>
		<path class="st0" d="M590.82-436.63c-0.7,0.8-5.3,3.4-10.3,5.7c-6.8,3.3-11.3,4.6-18.7,5.8c-9.3,1.3-12.9,2.3-8.7,2.3
			c3.4,0,9.1,4.7,10.6,8.7c1,2.9,1.3,11.4,1.3,34.3c0,30,0,30.6-2.4,35.3c-2.5,5.2-6.8,9-12.4,10.9c-3,1.1,1.5,1.3,28.4,1.3
			c31.7,0,31.9,0,27.7-1.8c-4.9-2.1-9.2-5.9-11.6-10.2c-1.5-2.6-1.8-8.6-2.2-48.4C592.12-428.73,591.72-437.83,590.82-436.63z"/>
		<path class="st0" d="M314.82-436.13c0.4,0.6,1.9,1.4,3.4,1.8c8.9,2.2,12.2,9.2,24.7,51.5c14.2,47.9,15.4,49.8,32.4,50.3
			c6.9,0.3,9.2,0,9.2-0.9c0-1.1-15.6-52.9-27.1-89.7l-4-12.7h-17.2c-9.5,0-18.3-0.3-19.6-0.7
			C315.02-436.93,314.42-436.73,314.82-436.13z"/>
		<path class="st0" d="M479.12-434.93c4.8,2.2,10.5,8.6,12.4,13.8c1,2.8,1.5,13.6,1.9,41.8c0.4,27.4,0.9,38.6,1.8,40.2
			c4.6,8,24.2,9.4,37.4,2.7c6.1-3.1,6.6-4,1.9-3.6c-2.2,0.2-5.1-0.3-6.9-1.3c-5.7-2.9-6.1-5.2-6.1-37.4c0-31.5-0.6-36.4-5-43.5
			c-6-9.3-14.7-13.3-31.5-14.1l-10-0.5L479.12-434.93z"/>
		<path class="st0" d="M614.52-435.43c-6.5,1.8-11.4,4.4-14.1,7.3c-2.1,2.3-2.2,2.5-0.4,1.8c10.1-4.2,13.6-4.8,19-3.6
			c6.4,1.4,10.5,4.5,13.1,9.8c1.7,3.4,1.9,7.3,2.4,41c0.5,35.8,0.6,37.3,2.6,40c4.7,6.3,14.6,8.7,26.6,6.3c5-0.9,15.8-5.3,15.8-6.3
			c0-0.1-2.3-0.2-5.1-0.3c-4.2-0.1-5.6-0.6-7.9-3l-2.9-2.9l-0.5-33c-0.3-19.8-0.9-34.5-1.5-36.7c-3-9.9-12.6-18.5-23.3-20.7
			C631.92-437.13,620.22-436.93,614.52-435.43z"/>
		<path class="st0" d="M733.02-435.83c0.2,0.4,1.8,1,3.4,1.3c4.1,0.9,10.1,6.4,12.5,11.7c2,4.2,2.1,6.7,2.6,42.5
			c0.6,42.4,0.5,42.2,7.4,45.8c3.3,1.6,6,2.1,14.1,2.1c10.6,0.1,16.1-1.2,19-4.4c1.8-2,1.7-2-2.3-2c-2.9,0-4.9-0.7-6.9-2.4l-2.8-2.4
			l-0.5-34.4c-0.5-30-0.7-34.8-2.3-38.3c-4.3-9.5-9.8-14.8-18.8-17.8C753.72-435.73,732.12-437.23,733.02-435.83z"/>
		<path class="st0" d="M478.02-387.13c-5.5,1.2-18.6,5.9-23.7,8.4c-11.5,5.8-16.7,12.7-17.5,23.4c-0.6,8.4,3.1,15.7,10.1,20
			c4.5,2.8,5.7,3,13.5,2.9c6.3-0.1,10.2-0.7,14.6-2.4c7.5-2.8,8.9-4,4.7-4c-4.7,0-9.8-5-11.7-11.3c-4.3-14.6,0.6-30,11.4-35.7
			C482.82-387.63,482.32-388.13,478.02-387.13z"/>
		<path class="st0" d="M725.02-384.43c-19.5,6.4-28,12.7-31,23.1c-4.2,14.3,4.5,27.4,19.3,29.2c6.1,0.7,15.1-1,21.6-4.1l5.1-2.4
			l-3.7-0.1c-8.2-0.2-13.3-8.9-13.3-22.6c0-12.5,4-20.1,13-24.8C741.22-388.93,736.02-388.13,725.02-384.43z"/>
		<path class="st0" d="M-31.88-351.93c-1.2,7.9-6.1,14.9-12.8,18.2c-2.4,1.2-0.7,1.4,14.7,1.4s17.1-0.2,14.7-1.4
			c-6.3-3.2-12.5-10.9-14.7-18.4l-1.2-4.1L-31.88-351.93z"/>
	</g>
	<circle class="st1" cx="403.52" cy="-421.19" r="19"/>
	<circle class="st1" cx="716.49" cy="-407.73" r="19"/>
	<circle class="st1" cx="459.4" cy="-407.73" r="19"/>
</g>
<g id="MasterLayer_1">
</g>
</svg>
